<?xml version="1.0" standalone="no"?>
<!DOCTYPE svg PUBLIC "-//W3C//DTD SVG 20010904//EN"
 "http://www.w3.org/TR/2001/REC-SVG-20010904/DTD/svg10.dtd">
<svg version="1.0" xmlns="http://www.w3.org/2000/svg"
 width="279.000000pt" height="279.000000pt" viewBox="0 0 279.000000 279.000000"
 preserveAspectRatio="xMidYMid meet">
<metadata>
Created by potrace 1.11, written by Peter Selinger 2001-2013
</metadata>
<g transform="translate(0.000000,279.000000) scale(0.100000,-0.100000)"
fill="#000000" stroke="none">
<path d="M470 2731 c0 -4 81 -60 180 -126 172 -114 194 -134 137 -135 -25 0
-77 -28 -77 -42 0 -7 22 -9 72 -5 l71 6 -6 -227 c-4 -125 -7 -245 -7 -268 l0
-41 -167 -26 c-93 -15 -190 -30 -218 -33 -61 -8 -68 -12 -53 -28 12 -13 58
-10 58 4 0 4 19 10 43 13 23 3 94 15 157 26 63 11 138 22 167 26 51 7 51 6 58
-24 3 -17 4 -35 1 -39 -3 -5 -33 -15 -67 -21 -33 -7 -59 -14 -56 -17 2 -3 24
0 48 5 72 17 70 19 67 -66 -3 -75 -4 -77 -31 -84 -16 -4 -34 -14 -40 -22 -8
-9 -41 -17 -87 -22 -41 -3 -88 -8 -105 -11 -81 -12 -155 -15 -172 -6 -20 11
-63 -1 -63 -17 0 -17 49 -60 75 -67 29 -7 34 -24 8 -24 -10 0 -24 -4 -31 -9
-11 -7 -11 -11 1 -23 16 -16 18 -16 212 16 55 9 118 19 140 22 l40 6 -2 -138
c-2 -77 -6 -181 -9 -233 -5 -80 -9 -94 -25 -98 -17 -5 -19 -15 -19 -91 0 -63
4 -90 16 -103 10 -11 14 -32 12 -63 l-3 -47 -45 68 c-25 37 -76 101 -115 142
-76 80 -227 211 -244 211 -6 0 -11 -9 -11 -19 0 -23 48 -83 60 -76 4 3 11 -2
14 -10 3 -8 9 -14 13 -13 5 2 45 -33 91 -76 78 -75 202 -243 202 -274 0 -8 13
-31 29 -51 19 -25 26 -42 21 -55 -6 -19 -7 -19 -13 -1 -4 10 -10 15 -13 12 -3
-3 4 -24 16 -47 17 -33 21 -57 19 -123 -2 -102 -4 -107 -35 -98 -20 5 -40 34
-91 131 -84 159 -109 196 -200 289 -41 42 -82 90 -91 106 -16 30 -16 30 -20 6
-3 -20 14 -43 93 -120 100 -97 142 -155 185 -251 41 -92 91 -180 108 -189 14
-8 17 -24 14 -90 -1 -45 2 -81 6 -81 5 0 12 39 16 87 3 48 11 90 16 93 11 7
16 302 5 320 -7 12 -8 161 0 270 2 30 6 177 9 325 7 276 16 449 23 428 9 -24
43 20 43 55 0 29 2 33 15 22 18 -15 45 -6 45 13 0 8 -7 21 -16 28 -14 11 -18
10 -30 -6 -12 -17 -14 -7 -14 78 0 92 -1 97 -21 97 l-22 0 5 267 c4 238 7 267
22 279 20 14 153 40 162 32 9 -10 5 -1439 -5 -1452 -11 -13 -18 -202 -8 -212
4 -4 7 -160 7 -346 0 -238 3 -338 11 -338 6 0 13 9 16 20 3 11 9 18 13 15 5
-3 6 4 3 14 -5 19 25 76 35 67 3 -3 0 -11 -6 -18 -7 -9 -6 -17 3 -25 10 -10
16 -9 25 2 10 12 10 15 -1 15 -11 0 -11 2 1 10 10 6 11 10 3 10 -21 0 -15 18
8 25 17 6 19 9 8 16 -10 6 -8 9 9 9 21 0 22 -3 22 -97 0 -61 4 -93 9 -84 5 8
10 73 10 144 1 72 4 133 6 137 2 3 5 74 6 157 2 138 3 152 20 156 11 3 19 1
19 -4 0 -5 190 -9 455 -9 326 0 455 3 455 11 0 6 -6 9 -13 6 -8 -3 -20 -1 -28
3 -11 7 -9 9 6 10 55 1 129 16 118 23 -21 14 -15 29 6 17 27 -14 41 -13 41 4
0 9 8 12 24 9 13 -3 26 -1 30 5 7 11 -325 22 -833 27 -233 2 -357 7 -364 14
-6 6 -34 11 -63 11 l-52 0 0 92 -1 91 352 -7 c385 -7 894 -23 1025 -31 46 -3
81 -1 78 3 -3 5 -92 12 -198 16 -106 4 -213 9 -238 11 -76 7 -356 15 -536 16
-95 0 -199 3 -233 6 l-61 6 0 53 c0 46 6 61 47 121 60 88 230 279 328 368 76
70 195 154 245 175 24 10 36 6 104 -35 43 -25 75 -41 72 -36 -4 5 0 11 6 14 7
3 4 5 -7 4 -27 -1 -76 32 -68 47 3 6 3 8 -2 4 -4 -4 -22 0 -39 9 -27 15 -28
18 -11 21 11 2 24 10 28 18 11 18 24 18 24 -1 0 -8 -4 -15 -9 -15 -18 0 -7
-17 20 -31 15 -7 44 -24 65 -37 31 -19 40 -20 51 -10 16 17 9 38 -12 37 -11 0
-12 -2 -4 -6 6 -2 12 -9 12 -14 0 -5 -11 -2 -24 6 -22 14 -36 73 -15 59 5 -3
9 1 10 8 0 7 5 2 10 -11 8 -19 12 -21 24 -11 13 10 19 9 37 -6 21 -19 21 -19
15 1 -7 19 -7 19 10 -1 20 -23 101 -74 90 -57 -4 6 -1 14 5 16 10 4 10 6 1 6
-7 1 -21 8 -30 17 -10 8 -53 38 -95 65 -43 27 -78 53 -78 57 0 4 -29 25 -64
47 -36 22 -62 43 -59 49 3 5 1 6 -5 2 -6 -3 -14 -1 -17 5 -4 5 -13 8 -21 5 -7
-3 -78 36 -156 86 -468 297 -483 308 -473 355 5 19 4 24 -3 14 -8 -11 -27 -3
-96 40 -62 37 -90 49 -95 41 -5 -9 -13 -6 -29 8 -12 11 -25 19 -29 18 -4 -2
-11 11 -14 27 -4 17 -7 22 -8 13 -1 -22 -15 -23 -35 -3 -8 8 -18 15 -21 15
-11 0 -71 52 -65 56 3 2 -11 12 -30 23 -19 10 -53 28 -75 40 -47 25 -100 29
-91 6 3 -10 -1 -15 -13 -15 -11 0 -21 4 -23 9 -1 4 -22 10 -46 14 -30 4 -40 2
-35 -6 5 -9 3 -9 -8 -1 -18 14 -59 24 -59 15z m379 -275 c-7 -6 -104 -18 -98
-12 7 8 92 24 98 19 2 -2 2 -5 0 -7z m258 -18 c-3 -8 -6 -5 -6 6 -1 11 2 17 5
13 3 -3 4 -12 1 -19z m25 -3 c-2 -14 -6 -25 -8 -25 -2 0 -4 11 -4 25 0 14 4
25 9 25 4 0 6 -11 3 -25z m48 -28 c0 -4 -6 -5 -12 -1 -8 5 -7 0 2 -11 13 -15
13 -18 1 -13 -8 2 -18 16 -22 31 -6 24 -5 25 12 14 10 -6 19 -15 19 -20z
m-103 -19 c-3 -8 -6 -5 -6 6 -1 11 2 17 5 13 3 -3 4 -12 1 -19z m20 -64 c-3
-3 -12 -4 -19 -1 -8 3 -5 6 6 6 11 1 17 -2 13 -5z m13 -24 c0 -5 -4 -10 -10
-10 -5 0 -10 5 -10 10 0 6 5 10 10 10 6 0 10 -4 10 -10z m0 -54 c-4 -4 -4 -21
0 -37 5 -18 5 -27 -1 -24 -5 3 -6 0 -4 -8 3 -7 1 -24 -4 -38 -7 -18 -9 -5 -9
57 1 65 4 79 14 70 7 -6 9 -15 4 -20z m-33 -8 c-3 -8 -6 -5 -6 6 -1 11 2 17 5
13 3 -3 4 -12 1 -19z m163 -19 c0 -6 -4 -7 -10 -4 -5 3 -10 11 -10 16 0 6 5 7
10 4 6 -3 10 -11 10 -16z m-38 -18 c2 -17 1 -28 -4 -25 -8 5 -12 54 -4 54 2 0
6 -13 8 -29z m-52 9 c0 -5 -5 -10 -11 -10 -5 0 -7 5 -4 10 3 6 8 10 11 10 2 0
4 -4 4 -10z m27 -12 c-3 -8 -6 -5 -6 6 -1 11 2 17 5 13 3 -3 4 -12 1 -19z m60
-60 c-2 -13 -4 -3 -4 22 0 25 2 35 4 23 2 -13 2 -33 0 -45z m-87 35 c-1 -10
-7 -31 -15 -48 l-13 -30 0 30 c1 41 8 65 19 65 5 0 9 -8 9 -17z m-73 -30 c-3
-10 -5 -4 -5 12 0 17 2 24 5 18 2 -7 2 -21 0 -30z m478 -194 c-22 -4 -87 -14
-145 -23 -58 -9 -115 -19 -127 -22 -23 -4 -23 -4 -23 135 l0 140 167 -112 168
-111 -40 -7z m33 146 c-3 -3 -9 2 -12 12 -6 14 -5 15 5 6 7 -7 10 -15 7 -18z
m-32 3 c4 -6 3 -8 -3 -5 -11 7 -28 -22 -18 -31 3 -3 5 -1 5 4 0 14 40 11 68
-4 12 -7 26 -11 31 -8 4 3 8 0 8 -7 0 -7 4 -20 8 -29 4 -11 3 -18 -4 -18 -6 0
-11 6 -11 14 0 8 -4 18 -10 21 -6 3 -7 -1 -4 -9 3 -9 1 -16 -5 -16 -6 0 -11 9
-11 20 0 25 -25 37 -43 21 -21 -17 -51 10 -43 37 8 24 21 28 32 10z m-403 -11
c3 -8 1 -20 -4 -28 -6 -10 -9 -7 -9 14 0 29 5 35 13 14z m-76 -29 c-3 -8 -6
-5 -6 6 -1 11 2 17 5 13 3 -3 4 -12 1 -19z m160 -30 c-3 -7 -5 -2 -5 12 0 14
2 19 5 13 2 -7 2 -19 0 -25z m-130 0 c-3 -8 -6 -5 -6 6 -1 11 2 17 5 13 3 -3
4 -12 1 -19z m491 4 c2 -7 -2 -10 -12 -6 -9 3 -16 11 -16 16 0 13 23 5 28 -10z
m-521 -29 c-3 -10 -5 -4 -5 12 0 17 2 24 5 18 2 -7 2 -21 0 -30z m67 -12 c-4
-25 -12 -41 -20 -41 -8 0 -14 5 -14 11 0 5 5 7 11 3 8 -5 10 1 7 20 -3 14 -1
26 3 26 5 0 9 8 9 17 0 9 2 14 5 11 3 -3 3 -24 -1 -47z m400 33 c24 -24 19
-30 -6 -8 -13 10 -25 20 -27 21 -2 2 1 3 7 3 6 0 18 -7 26 -16z m144 5 c-2 -6
3 -14 11 -17 8 -2 11 0 8 5 -3 5 0 10 7 10 15 0 17 -27 3 -44 -14 -19 -27 -16
-20 5 6 15 5 15 -10 3 -22 -17 -34 -7 -17 14 10 12 10 15 -1 15 -11 0 -11 2 1
10 19 12 21 12 18 -1z m-64 -61 c-3 -4 -16 -1 -30 8 -32 21 -30 25 5 11 17 -6
28 -14 25 -19z m142 21 c3 -6 1 -15 -5 -20 -6 -5 -9 -6 -6 -3 3 4 0 13 -6 21
-8 9 -8 13 -1 13 6 0 14 -5 18 -11z m-537 -83 c-9 -8 -10 -7 -5 7 3 10 7 31 8
45 1 22 2 21 5 -7 3 -19 -1 -38 -8 -45z m461 14 c-6 -11 -21 -22 -34 -26 -13
-3 -29 -17 -35 -30 -6 -15 -22 -27 -41 -30 -20 -4 -36 -18 -50 -41 -17 -29
-25 -34 -46 -30 -13 2 -22 2 -20 -1 9 -9 -24 -62 -39 -62 -8 0 -31 -9 -52 -19
-50 -26 -166 -38 -198 -21 -22 12 -24 18 -24 107 0 111 -12 102 164 128 66 10
156 24 200 30 44 7 104 13 133 14 50 1 52 0 42 -19z m205 -13 c13 0 27 -11 38
-29 15 -26 15 -28 0 -20 -9 5 -25 8 -37 6 -12 -3 -15 -1 -8 2 9 4 1 14 -25 31
-27 17 -31 22 -13 16 14 -4 34 -7 45 -6z m-745 -7 c0 -5 -5 -10 -11 -10 -5 0
-7 5 -4 10 3 6 8 10 11 10 2 0 4 -4 4 -10z m605 0 c3 -5 1 -10 -4 -10 -6 0
-11 5 -11 10 0 6 2 10 4 10 3 0 8 -4 11 -10z m225 -12 c0 -6 -6 -5 -15 2 -8 7
-15 14 -15 16 0 2 7 1 15 -2 8 -4 15 -11 15 -16z m-270 8 c0 -3 -4 -8 -10 -11
-5 -3 -10 -1 -10 4 0 6 5 11 10 11 6 0 10 -2 10 -4z m145 -26 c-3 -5 -1 -10 5
-10 6 0 8 -4 5 -10 -4 -6 -13 -5 -25 3 -19 11 -19 12 -2 19 24 9 24 9 17 -2z
m-21 -29 c4 -5 -3 -7 -14 -4 -23 6 -26 13 -6 13 8 0 17 -4 20 -9z m259 -39 c6
-8 -6 -4 -26 8 -20 12 -40 27 -44 32 -8 14 55 -23 70 -40z m-173 29 c0 -5 -7
-12 -16 -15 -14 -5 -15 -4 -4 9 14 17 20 19 20 6z m-110 -11 c0 -5 -2 -10 -4
-10 -3 0 -8 5 -11 10 -3 6 -1 10 4 10 6 0 11 -4 11 -10z m197 4 c-3 -3 -12 -4
-19 -1 -8 3 -5 6 6 6 11 1 17 -2 13 -5z m-353 -19 c-10 -8 -23 -14 -29 -14 -5
0 -1 6 9 14 11 8 24 15 30 15 5 0 1 -7 -10 -15z m366 -7 c0 -5 -7 -8 -15 -8
-20 0 -19 -10 3 -27 15 -12 14 -12 -10 -2 -33 14 -34 47 -1 45 13 0 23 -4 23
-8z m-235 -17 c-8 -15 15 -25 28 -12 6 6 16 11 21 11 11 0 -9 -15 -59 -45 -30
-17 -30 -17 -7 2 25 20 20 33 -12 33 -17 0 -18 2 -6 10 19 12 43 13 35 1z
m-225 -11 c0 -5 -4 -10 -10 -10 -5 0 -10 5 -10 10 0 6 5 10 10 10 6 0 10 -4
10 -10z m-30 -54 c0 -2 -7 -9 -15 -16 -12 -10 -15 -10 -15 4 0 9 7 16 15 16 8
0 15 -2 15 -4z m150 -49 c0 -2 -15 -14 -32 -27 l-33 -23 24 26 c21 23 41 35
41 24z m-80 -27 c-13 -11 -26 -18 -28 -15 -6 6 28 34 42 35 5 0 -1 -9 -14 -20z
m-63 -15 c-33 -29 -47 -32 -47 -7 0 14 2 15 10 2 8 -13 10 -12 10 3 0 10 4 16
8 13 4 -2 14 -1 22 5 27 16 25 9 -3 -16z m-217 -18 c0 -2 -18 -21 -40 -42
l-40 -39 0 42 0 42 40 0 c22 0 40 -1 40 -3z m240 -32 c0 -2 -10 -9 -22 -15
-22 -11 -22 -10 -4 4 21 17 26 19 26 11z m-465 -35 c3 -5 1 -10 -4 -10 -6 0
-11 5 -11 10 0 6 2 10 4 10 3 0 8 -4 11 -10z m-18 -62 c-3 -8 -6 -5 -6 6 -1
11 2 17 5 13 3 -3 4 -12 1 -19z m-531 -11 c4 -4 -7 -7 -25 -7 -19 0 -30 4 -26
10 6 10 40 8 51 -3z m571 -19 c-3 -8 -6 -5 -6 6 -1 11 2 17 5 13 3 -3 4 -12 1
-19z m93 -62 c-7 -7 -10 -6 -10 4 0 7 -3 10 -6 7 -4 -4 -1 -13 6 -22 10 -12
10 -15 -3 -15 -11 0 -14 -5 -10 -17 4 -11 3 -14 -5 -9 -7 4 -12 2 -12 -5 0 -7
-2 -10 -5 -7 -3 3 4 32 16 64 20 53 23 56 31 34 5 -15 5 -27 -2 -34z m-75 -45
c3 -5 1 -12 -5 -16 -5 -3 -10 1 -10 9 0 18 6 21 15 7z m197 -33 c-12 -12 -22
-17 -22 -10 0 7 5 12 10 12 6 0 9 3 9 8 -1 4 -1 14 0 22 1 11 4 11 13 2 10
-10 7 -17 -10 -34z m-235 -30 c-2 -13 -4 -5 -4 17 -1 22 1 32 4 23 2 -10 2
-28 0 -40z m68 24 c-3 -3 -11 0 -18 7 -9 10 -8 11 6 5 10 -3 15 -9 12 -12z
m134 -36 c-8 -6 -28 -33 -45 -59 l-31 -48 -2 55 c-1 35 3 56 9 56 6 0 8 -4 5
-10 -12 -20 6 -9 33 19 23 26 28 27 36 14 6 -11 4 -20 -5 -27z m-102 2 c-3 -8
-6 -5 -6 6 -1 11 2 17 5 13 3 -3 4 -12 1 -19z m-33 -36 c10 -2 22 1 26 8 4 6
8 -15 9 -47 1 -31 6 -60 12 -64 6 -3 2 -9 -10 -12 -13 -3 -21 -13 -21 -25 0
-12 -4 -23 -9 -27 -6 -3 -7 9 -4 30 6 34 5 36 -21 31 l-26 -5 16 32 c9 18 26
40 38 49 17 14 18 18 5 18 -9 0 -20 -7 -23 -16 -3 -8 -10 -12 -16 -9 -5 3 -7
0 -4 -8 3 -8 -2 -21 -10 -30 -9 -9 -16 -23 -16 -31 0 -9 -4 -16 -10 -16 -5 0
-10 5 -10 12 0 6 -3 9 -6 6 -3 -4 0 -17 7 -30 11 -21 11 -22 -4 -9 -17 13 -25
77 -8 67 4 -3 14 13 21 35 10 28 18 38 28 34 12 -4 12 -1 -1 19 -9 13 -13 26
-10 30 3 3 11 -4 17 -16 6 -13 20 -24 30 -26z m-87 6 c-3 -8 -6 -5 -6 6 -1 11
2 17 5 13 3 -3 4 -12 1 -19z m130 -160 c-3 -8 -6 -5 -6 6 -1 11 2 17 5 13 3
-3 4 -12 1 -19z m-79 -21 c-2 -18 -9 -23 -33 -25 -22 -2 -26 0 -15 7 8 5 18 7
23 4 4 -3 11 4 14 16 7 28 13 27 11 -2z m82 -17 c0 -5 -15 -9 -32 -9 l-33 1
30 8 c17 4 31 8 33 9 1 0 2 -3 2 -9z m-400 -115 c0 -30 -4 -55 -10 -55 -5 0
-10 25 -10 55 0 30 5 55 10 55 6 0 10 -25 10 -55z m0 -74 c0 -12 -20 -25 -27
-18 -7 7 6 27 18 27 5 0 9 -4 9 -9z m300 -277 c0 -8 -5 -12 -10 -9 -6 4 -8 11
-5 16 9 14 15 11 15 -7z m-6 -69 c3 -8 1 -15 -4 -15 -6 0 -10 7 -10 15 0 8 2
15 4 15 2 0 6 -7 10 -15z m-7 -112 c-3 -10 -5 -2 -5 17 0 19 2 27 5 18 2 -10
2 -26 0 -35z m30 -10 c-3 -10 -5 -4 -5 12 0 17 2 24 5 18 2 -7 2 -21 0 -30z
m63 -43 c0 -5 -4 -10 -10 -10 -5 0 -10 5 -10 10 0 6 5 10 10 10 6 0 10 -4 10
-10z"/>
<path d="M1600 1910 c-22 -7 -21 -8 13 -9 20 -1 37 4 37 9 0 11 -14 11 -50 0z"/>
<path d="M1011 2707 c25 -21 136 -98 169 -117 17 -11 10 -21 -17 -23 -15 -1
-18 -7 -15 -24 6 -34 31 -44 81 -31 38 10 45 8 79 -17 20 -14 58 -41 84 -58
26 -18 48 -37 48 -43 0 -6 6 -11 13 -11 13 0 120 -72 125 -85 2 -5 8 -8 13 -8
19 0 122 -83 126 -101 4 -15 8 -17 19 -8 11 9 14 8 14 -4 0 -17 33 -40 43 -31
3 4 37 -16 76 -43 57 -41 68 -52 58 -63 -10 -12 -9 -12 5 -1 12 9 21 10 30 2
37 -31 227 -149 232 -144 3 3 -52 44 -122 91 -70 46 -128 88 -130 93 -2 5 -8
9 -13 9 -5 0 -49 27 -97 60 -48 32 -132 90 -187 128 -55 37 -158 109 -228 160
-120 86 -126 92 -100 97 57 13 75 24 71 48 -4 29 -41 33 -114 12 l-55 -16
-110 76 c-107 73 -151 97 -98 52z m339 -131 c0 -9 -16 -17 -42 -21 -24 -4 -60
-13 -80 -21 -36 -13 -61 -4 -36 13 17 11 118 41 141 42 9 1 17 -5 17 -13z"/>
<path d="M1701 2178 c-1 -10 -7 -16 -13 -14 -7 1 -10 1 -5 -1 4 -3 7 -12 8
-21 0 -11 4 -9 10 7 5 13 8 29 5 35 -2 6 -5 3 -5 -6z"/>
<path d="M1939 1982 c5 -16 17 -28 33 -33 24 -6 25 -5 19 19 -5 16 -17 28 -33
33 -24 6 -25 5 -19 -19z"/>
<path d="M976 1874 c-21 -21 -12 -34 25 -34 30 0 38 17 17 38 -16 16 -23 15
-42 -4z m24 -14 c0 -5 -4 -10 -10 -10 -5 0 -10 5 -10 10 0 6 5 10 10 10 6 0
10 -4 10 -10z"/>
<path d="M678 1773 c6 -2 18 -2 25 0 6 3 1 5 -13 5 -14 0 -19 -2 -12 -5z"/>
<path d="M2040 1750 c0 -5 5 -10 10 -10 6 0 10 5 10 10 0 6 -4 10 -10 10 -5 0
-10 -4 -10 -10z"/>
<path d="M844 995 c-8 -21 4 -35 31 -35 30 0 40 27 15 40 -26 14 -40 13 -46
-5z"/>
<path d="M1127 973 c-10 -3 -17 -12 -15 -21 5 -25 27 -26 36 -1 6 15 11 18 16
11 10 -17 26 -15 20 3 -6 15 -22 17 -57 8z"/>
<path d="M1290 961 c0 -5 7 -11 15 -15 8 -3 15 -1 15 3 0 5 -7 11 -15 15 -8 3
-15 1 -15 -3z"/>
<path d="M1633 953 c9 -2 23 -2 30 0 6 3 -1 5 -18 5 -16 0 -22 -2 -12 -5z"/>
<path d="M430 940 c0 -5 5 -10 10 -10 6 0 10 5 10 10 0 6 -4 10 -10 10 -5 0
-10 -4 -10 -10z"/>
<path d="M1060 930 c0 -5 4 -10 9 -10 6 0 13 5 16 10 3 6 -1 10 -9 10 -9 0
-16 -4 -16 -10z"/>
<path d="M925 900 c-9 -27 1 -40 31 -40 19 0 24 5 24 24 0 21 -16 36 -40 36
-5 0 -11 -9 -15 -20z m25 -10 c0 -5 -2 -10 -4 -10 -3 0 -8 5 -11 10 -3 6 -1
10 4 10 6 0 11 -4 11 -10z"/>
<path d="M862 358 c-16 -16 -15 -33 2 -47 28 -23 68 17 45 45 -14 17 -31 18
-47 2z"/>
</g>
</svg>
